# File created by Blade
# Date/Time:  Mon Sep 22 17:46:01 2014
# Frame Rate: 120.000 fps
#------------------------------------------------------
:FULLY-SPECIFIED
:DEGREES
3400
root 5.011297 37.762842 4.636930 2.906039 -19.754513 -14.757793
RightUpLeg 7.602755 -18.423828 -9.762511
RightLeg 68.437147 -0.000000 -0.000000
RightFoot -3.464112 -29.398567 13.051678
RightToeBase -7.066445 -0.000000 0.000000
LeftUpLeg 11.679275 1.322141 5.867706
LeftLeg -7.145104 -0.000000 0.000000
LeftFoot -11.208724 22.183269 -12.097743
LeftToeBase 6.002099 -0.000000 -0.000000
Spine 21.204844 -18.708767 -20.385679
RightShoulder -5.265000 -33.469326 -1.839670
RightArm 16.883818 -24.948139 69.887915
RightForeArm 4.984207 -0.000000 54.817695
RightHand -3.005188 0.000000 -13.471849
RightHandThumb1 -24.326973 -0.000000 -32.862282
LeftShoulder -11.883172 30.199760 12.744300
LeftArm 54.353200 -38.309547 -71.708709
LeftForeArm 31.863889 -0.000000 111.028362
LeftHand -34.546111 -0.000000 21.533675
LeftHandThumb1 -26.253704 0.000000 33.147579
Head 28.430089 14.918346 29.281056
3401
root 4.998235 37.762814 4.627121 2.732955 -19.932063 -14.749972
RightUpLeg 7.469604 -19.013898 -9.551098
RightLeg 68.000274 -0.000000 -0.000000
RightFoot -3.796744 -29.303877 13.453724
RightToeBase -6.330201 -0.000000 0.000000
LeftUpLeg 11.848360 1.466394 5.873469
LeftLeg -7.087749 -0.000000 0.000000
LeftFoot -11.241337 22.227757 -12.087086
LeftToeBase 6.011150 -0.000000 -0.000000
Spine 21.441350 -18.597141 -20.539003
RightShoulder -5.318931 -33.527179 -1.776441
RightArm 16.867252 -24.796993 69.936346
RightForeArm 4.942587 -0.000000 55.195714
RightHand -3.005855 -0.000000 -13.511754
RightHandThumb1 -24.326973 -0.000000 -32.862282
LeftShoulder -11.992651 30.239653 12.673909
LeftArm 54.459248 -38.501102 -71.880220
LeftForeArm 31.843242 -0.000000 111.184451
LeftHand -34.557512 -0.000000 21.458861
LeftHandThumb1 -26.253704 0.000000 33.147579
Head 28.428171 15.091757 29.101117
3402
root 4.985412 37.763288 4.617429 2.589438 -20.065125 -14.737118
RightUpLeg 7.361544 -19.632601 -9.338879
RightLeg 67.488905 -0.000000 -0.000000
RightFoot -3.875168 -29.386733 13.446662
RightToeBase -6.160773 -0.000000 0.000000
LeftUpLeg 11.973890 1.637737 5.885949
LeftLeg -7.027331 -0.000000 0.000000
LeftFoot -11.252003 22.206178 -12.061660
LeftToeBase 5.989029 -0.000000 -0.000000
Spine 21.638490 -18.529371 -20.678000
RightShoulder -5.346969 -33.577279 -1.725361
RightArm 16.794759 -24.632380 70.016657
RightForeArm 4.963044 -0.000000 55.583955
RightHand -3.013400 -0.000000 -13.490818
RightHandThumb1 -24.326973 -0.000000 -32.862282
LeftShoulder -12.134745 30.355394 12.607100
LeftArm 54.656538 -38.611373 -72.117881
LeftForeArm 31.917074 -0.000000 111.299831
LeftHand -34.574636 -0.000000 21.377445
LeftHandThumb1 -26.253704 0.000000 33.147579
Head 28.441680 15.263772 28.930739
3403
root 4.973187 37.764867 4.608121 2.468969 -20.155215 -14.739303
RightUpLeg 7.269781 -20.278745 -9.130536
RightLeg 66.946417 -0.000000 -0.000000
RightFoot -4.014127 -29.366363 13.618589
RightToeBase -6.139992 -0.000000 0.000000
LeftUpLeg 12.066472 1.785059 5.910779
LeftLeg -6.951701 -0.000000 0.000000
LeftFoot -11.271261 22.226859 -11.903449
LeftToeBase 6.175084 -0.000000 -0.000000
Spine 21.825087 -18.479634 -20.771794
RightShoulder -5.432666 -33.633687 -1.635541
RightArm 16.739724 -24.479060 70.060379
RightForeArm 4.902832 -0.000000 55.982147
RightHand -3.114749 -0.000000 -13.546681
RightHandThumb1 -24.326973 -0.000000 -32.862282
LeftShoulder -12.233128 30.403289 12.546579
LeftArm 54.777998 -38.696624 -72.289640
LeftForeArm 32.015224 0.000000 111.418794
LeftHand -34.685801 0.000000 21.039515
LeftHandThumb1 -26.253704 0.000000 33.147579
Head 28.463201 15.410293 28.773047
3404
root 4.962302 37.766505 4.597579 2.385364 -20.213027 -14.737523
RightUpLeg 7.171352 -20.929874 -8.910617
RightLeg 66.386761 -0.000000 -0.000000
RightFoot -4.027743 -29.390545 13.772155
RightToeBase -6.471576 -0.000000 0.000000
LeftUpLeg 12.119029 1.862854 5.927961
LeftLeg -6.888851 -0.000000 0.000000
LeftFoot -11.308586 22.204870 -12.012505
LeftToeBase 6.083466 -0.000000 -0.000000
Spine 21.954637 -18.460505 -20.844000
RightShoulder -5.499966 -33.757382 -1.567355
RightArm 16.721989 -24.330079 70.115318
RightForeArm 4.961155 0.000000 56.316416
RightHand -2.968240 -0.000000 -13.781985
RightHandThumb1 -24.326973 -0.000000 -32.862282
LeftShoulder -12.296623 30.443253 12.521295
LeftArm 54.854423 -38.739394 -72.446417
LeftForeArm 32.049285 0.000000 111.521423
LeftHand -34.797273 -0.000000 20.974696
LeftHandThumb1 -26.253704 0.000000 33.147579
Head 28.502654 15.544923 28.608987
3405
root 4.953754 37.767524 4.589458 2.296706 -20.257546 -14.721079
RightUpLeg 7.104842 -21.557657 -8.740555
RightLeg 65.783751 -0.000000 -0.000000
RightFoot -3.905549 -29.376038 13.753819
RightToeBase -6.115036 -0.000000 0.000000
LeftUpLeg 12.178059 1.900298 5.924347
LeftLeg -6.838282 -0.000000 0.000000
LeftFoot -11.355735 22.273295 -11.950440
LeftToeBase 6.211195 -0.000000 -0.000000
Spine 22.090502 -18.449346 -20.922765
RightShoulder -5.561885 -33.830707 -1.487741
RightArm 16.651266 -24.139866 70.182040
RightForeArm 4.820152 -0.000000 56.666678
RightHand -3.014227 -0.000000 -13.717080
RightHandThumb1 -24.326973 -0.000000 -32.862282
LeftShoulder -12.393926 30.474052 12.490874
LeftArm 54.911508 -38.711664 -72.560924
LeftForeArm 32.055290 -0.000000 111.605647
LeftHand -34.705392 0.000000 20.993263
LeftHandThumb1 -26.253704 0.000000 33.147579
Head 28.543064 15.692135 28.482389
